<svg width="24" height="24" viewBox="0 0 24 24" fill="none" xmlns="http://www.w3.org/2000/svg">
<path d="M14.8821 16.084L15.5659 21.5156L12.0099 19.0443L8.43392 21.5179L8.8954 16.084H7.39357L6.84673 23.25H8.56667L12.0079 20.8697L15.4332 23.25H17.1532L16.384 16.084H14.8821ZM19.4723 7.26157L19.3694 5.00904L17.4703 3.79371L16.2547 1.89438L14.0022 1.79126L12 0.754333L9.99781 1.79149L7.74523 1.89461L6.52967 3.79371L4.63053 5.00904L4.52768 7.26157L3.49048 9.26379L4.52768 11.2661L4.63081 13.5185L6.52967 14.7339L7.74504 16.6332L9.99762 16.7361L12 17.7733L14.0022 16.7361L16.2547 16.6332L17.4701 14.7339L19.3694 13.5187L19.4723 11.2662L20.5095 9.26397L19.4723 7.26157ZM17.9889 10.8686L17.9062 12.6739L16.384 13.648L15.4099 15.1702L13.6045 15.2527L12 16.084L10.3953 15.2527L8.58987 15.1702L7.61581 13.648L6.09373 12.6739L6.01128 10.8686L5.17967 9.26379L6.01109 7.65935L6.09373 5.85372L7.61581 4.87966L8.58987 3.35744L10.3953 3.27494L12 2.44366L13.6047 3.2749L15.4101 3.3574L16.3842 4.87961L17.9062 5.85372L17.9887 7.65911L18.8203 9.26379L17.9889 10.8686Z" fill="#F26925"/>
</svg>
