<svg xmlns="http://www.w3.org/2000/svg" viewBox="0 0 24 24" id="history"><g><path fill="#fed330" d="M3.34131,8.001a1.0023,1.0023,0,0,1-.99805-.93653L2.08545,3.06738A.99959.99959,0,0,1,3.019,2.00684h.00537a1.003,1.003,0,0,1,1.05713.93261L4.27881,6.001,7,6A1,1,0,0,1,7,8Z"></path><path fill="#fed330" d="M12,23A11.01245,11.01245,0,0,1,1,12a1,1,0,0,1,2,0A8.99623,8.99623,0,1,0,4.20361,7.501,1.00044,1.00044,0,0,1,2.47168,6.499,11.001,11.001,0,1,1,12,23Z"></path><path fill="#fc5c65" d="M16,17a.99517.99517,0,0,1-.707-.293l-4-4A.99315.99315,0,0,1,11,12V7a1,1,0,0,1,2,0v4.58594l3.707,3.707A1,1,0,0,1,16,17Z"></path></g></svg>