<svg width="20" height="21" viewBox="0 0 20 21" fill="none" xmlns="http://www.w3.org/2000/svg">
<path d="M10 11.75C9.38194 11.75 8.77775 11.5667 8.26384 11.2233C7.74994 10.88 7.3494 10.3919 7.11288 9.82089C6.87635 9.24987 6.81447 8.62154 6.93505 8.01534C7.05563 7.40915 7.35325 6.85233 7.79029 6.41529C8.22733 5.97825 8.78415 5.68063 9.39034 5.56005C9.99654 5.43947 10.6249 5.50135 11.1959 5.73788C11.7669 5.9744 12.255 6.37494 12.5983 6.88884C12.9417 7.40275 13.125 8.00694 13.125 8.625C13.124 9.4535 12.7945 10.2478 12.2086 10.8336C11.6228 11.4195 10.8285 11.749 10 11.75ZM10 6.75C9.62916 6.75 9.26665 6.85997 8.95831 7.066C8.64997 7.27202 8.40964 7.56486 8.26773 7.90747C8.12581 8.25008 8.08868 8.62708 8.16103 8.9908C8.23338 9.35451 8.41195 9.6886 8.67418 9.95083C8.9364 10.2131 9.27049 10.3916 9.63421 10.464C9.99792 10.5363 10.3749 10.4992 10.7175 10.3573C11.0601 10.2154 11.353 9.97504 11.559 9.6667C11.765 9.35835 11.875 8.99584 11.875 8.625C11.8745 8.12787 11.6768 7.65125 11.3253 7.29972C10.9738 6.9482 10.4971 6.7505 10 6.75Z" fill="#6A6A6A"/>
<path d="M10 19.25L4.7275 13.0319C4.65424 12.9385 4.58174 12.8445 4.51 12.75C3.60982 11.5634 3.12333 10.1144 3.125 8.625C3.125 6.80164 3.84933 5.05295 5.13865 3.76364C6.42796 2.47433 8.17664 1.75 10 1.75C11.8234 1.75 13.5721 2.47433 14.8614 3.76364C16.1507 5.05295 16.875 6.80164 16.875 8.625C16.8765 10.1137 16.3902 11.5619 15.4906 12.7481L15.49 12.75C15.49 12.75 15.3025 12.9963 15.2744 13.0294L10 19.25ZM5.50813 11.9969C5.50813 11.9969 5.65375 12.1894 5.68688 12.2306L10 17.3175L14.3188 12.2237C14.3463 12.1894 14.4925 11.9956 14.4931 11.995C15.2289 11.0257 15.6265 9.8419 15.625 8.625C15.625 7.13316 15.0324 5.70242 13.9775 4.64752C12.9226 3.59263 11.4918 3 10 3C8.50816 3 7.07742 3.59263 6.02253 4.64752C4.96764 5.70242 4.375 7.13316 4.375 8.625C4.37346 9.84269 4.77153 11.0272 5.50813 11.9969Z" fill="#6A6A6A"/>
</svg>
