<svg width="24" height="24" viewBox="0 0 24 24" fill="none" xmlns="http://www.w3.org/2000/svg">
<path d="M9.71305 3.63997C10.294 3.14497 10.585 2.89697 10.889 2.75197C11.236 2.58621 11.6156 2.50018 12 2.50018C12.3845 2.50018 12.7641 2.58621 13.111 2.75197C13.415 2.89697 13.706 3.14497 14.287 3.63997C14.886 4.14997 15.494 4.40797 16.294 4.47097C17.055 4.53197 17.436 4.56297 17.754 4.67497C18.488 4.93497 19.066 5.51197 19.325 6.24697C19.437 6.56397 19.468 6.94497 19.529 7.70697C19.592 8.50697 19.849 9.11397 20.359 9.71297C20.855 10.294 21.103 10.585 21.248 10.889C21.584 11.592 21.584 12.409 21.248 13.111C21.103 13.415 20.855 13.706 20.36 14.287C19.8649 14.8433 19.5721 15.5505 19.529 16.294C19.468 17.055 19.437 17.436 19.325 17.754C19.1968 18.1165 18.9891 18.4458 18.7171 18.7176C18.4451 18.9895 18.1157 19.197 17.753 19.325C17.436 19.437 17.055 19.468 16.293 19.529C15.493 19.592 14.886 19.849 14.287 20.359C13.706 20.855 13.415 21.103 13.111 21.248C12.7641 21.4137 12.3845 21.4998 12 21.4998C11.6156 21.4998 11.236 21.4137 10.889 21.248C10.585 21.103 10.294 20.855 9.71305 20.36C9.15674 19.8648 8.44955 19.572 7.70604 19.529C6.94504 19.468 6.56404 19.437 6.24604 19.325C5.88348 19.1968 5.55421 18.989 5.28237 18.717C5.01053 18.445 4.80302 18.1156 4.67505 17.753C4.56305 17.436 4.53205 17.055 4.47105 16.293C4.42815 15.5499 4.13569 14.8431 3.64104 14.287C3.14504 13.706 2.89704 13.415 2.75104 13.111C2.58544 12.764 2.49958 12.3843 2.49976 11.9999C2.49993 11.6154 2.58613 11.2358 2.75204 10.889C2.89704 10.585 3.14504 10.294 3.64004 9.71297C4.16004 9.10197 4.40905 8.48997 4.47105 7.70597C4.53205 6.94497 4.56305 6.56397 4.67505 6.24597C4.80325 5.88341 5.01097 5.55414 5.28299 5.2823C5.555 5.01046 5.8844 4.80295 6.24705 4.67497C6.56405 4.56297 6.94504 4.53197 7.70704 4.47097C8.45009 4.42807 9.15691 4.13462 9.71305 3.63997Z" stroke="#F26925" stroke-width="1.5" stroke-linecap="round" stroke-linejoin="round"/>
<path d="M9 7.5H15M9 10.278H15M13.25 17.5L9 13.056H10.5C13.834 13.056 13.834 7.5 10.5 7.5" stroke="#F26925" stroke-width="1.5" stroke-linecap="round" stroke-linejoin="round"/>
</svg>
