<svg width="50" height="21" viewBox="0 0 50 21" fill="none" xmlns="http://www.w3.org/2000/svg">
<rect y="0.5" width="50" height="20" rx="2" fill="#067C0A"/>
<path d="M44.5267 9.44942L41.8635 11.7463L42.6772 15.1801C42.6987 15.2684 42.6936 15.361 42.6625 15.4463C42.6314 15.5317 42.5756 15.6059 42.5024 15.6595C42.4291 15.7132 42.3415 15.7439 42.2508 15.7479C42.16 15.7518 42.0702 15.7287 41.9925 15.6816L39 13.8408L36.0075 15.6811C35.9299 15.7282 35.84 15.7513 35.7493 15.7473C35.6585 15.7434 35.571 15.7127 35.4977 15.659C35.4244 15.6053 35.3687 15.5311 35.3376 15.4458C35.3065 15.3605 35.3013 15.2678 35.3228 15.1796L36.1366 11.7458L33.4733 9.44888C33.4054 9.38925 33.3564 9.31105 33.3325 9.22392C33.3085 9.13679 33.3106 9.04455 33.3385 8.95858C33.3663 8.87262 33.4187 8.7967 33.4893 8.74019C33.5598 8.68368 33.6453 8.64905 33.7353 8.6406L37.2303 8.35622L38.5767 5.09685C38.6111 5.01276 38.6697 4.9408 38.7451 4.89014C38.8204 4.83949 38.9092 4.81244 39 4.81244C39.0909 4.81244 39.1796 4.83949 39.255 4.89014C39.3304 4.9408 39.389 5.01276 39.4233 5.09685L40.7697 8.35622L44.2648 8.6406C44.3549 8.64895 44.4405 8.68355 44.5112 8.74009C44.5818 8.79663 44.6343 8.87265 44.6622 8.95872C44.6901 9.0448 44.6921 9.13716 44.668 9.22438C44.644 9.31159 44.5948 9.38984 44.5267 9.44942Z" fill="white"/>
<path d="M9.49 15.5V12.905H4.66V12.02L9.175 5.6H10.69V11.87H12.445V12.905H10.69V15.5H9.49ZM5.935 11.87H9.49V8.165C9.49 7.905 9.495 7.64 9.505 7.37C9.525 7.1 9.54 6.835 9.55 6.575H9.52C9.4 6.825 9.245 7.105 9.055 7.415C8.865 7.725 8.69 7.995 8.53 8.225L5.935 11.87ZM15.0038 13.7C15.2938 13.7 15.5288 13.79 15.7088 13.97C15.8888 14.15 15.9788 14.385 15.9788 14.675C15.9788 14.965 15.8888 15.2 15.7088 15.38C15.5288 15.56 15.2938 15.65 15.0038 15.65C14.7138 15.65 14.4788 15.56 14.2988 15.38C14.1188 15.2 14.0288 14.965 14.0288 14.675C14.0288 14.385 14.1188 14.15 14.2988 13.97C14.4788 13.79 14.7138 13.7 15.0038 13.7ZM21.2982 15.65C20.4182 15.65 19.7082 15.45 19.1682 15.05C18.6382 14.65 18.2282 14.095 17.9382 13.385L19.1082 12.77C19.2682 13.29 19.5132 13.715 19.8432 14.045C20.1832 14.365 20.6782 14.525 21.3282 14.525C21.7882 14.525 22.1782 14.44 22.4982 14.27C22.8282 14.1 23.0832 13.86 23.2632 13.55C23.4432 13.23 23.5332 12.85 23.5332 12.41C23.5332 11.94 23.4482 11.55 23.2782 11.24C23.1182 10.92 22.8832 10.68 22.5732 10.52C22.2632 10.36 21.8832 10.28 21.4332 10.28C21.1132 10.28 20.8132 10.315 20.5332 10.385C20.2632 10.445 20.0182 10.545 19.7982 10.685C19.5782 10.825 19.3882 11.01 19.2282 11.24L18.1782 11.045L18.7632 5.6H24.3282V6.725H19.7832L19.3932 9.845L19.3632 9.98H19.3932C19.6332 9.73 19.9382 9.53 20.3082 9.38C20.6882 9.23 21.1382 9.155 21.6582 9.155C22.2882 9.155 22.8332 9.29 23.2932 9.56C23.7632 9.82 24.1282 10.19 24.3882 10.67C24.6482 11.15 24.7782 11.71 24.7782 12.35C24.7782 12.86 24.6932 13.32 24.5232 13.73C24.3532 14.14 24.1132 14.49 23.8032 14.78C23.4932 15.06 23.1232 15.275 22.6932 15.425C22.2732 15.575 21.8082 15.65 21.2982 15.65Z" fill="white"/>
</svg>
