<svg xmlns="http://www.w3.org/2000/svg" width="24" height="24" fill="none" id="explore"><path fill="#000" fill-rule="evenodd" d="M17.303 6.696a.5.5 0 0 1 .111.54l-2.828 7.07a.5.5 0 0 1-.818.169l-4.243-4.243a.5.5 0 0 1 .168-.818l7.071-2.828a.5.5 0 0 1 .54.11Zm-6.534 3.365 3.17 3.17 2.113-5.283-5.283 2.113Z" clip-rule="evenodd"></path><path fill="#000" fill-rule="evenodd" d="M9.778 9.389a.5.5 0 0 1 .454.136l4.242 4.243a.5.5 0 0 1-.167.817l-7.071 2.829a.5.5 0 0 1-.65-.65l2.828-7.071a.5.5 0 0 1 .364-.304Zm.283 1.38-2.114 5.283 5.284-2.114-3.17-3.17Z" clip-rule="evenodd"></path><path fill="#000" fill-rule="evenodd" d="M11.999 2.5a9.5 9.5 0 1 0 0 19 9.5 9.5 0 0 0 0-19ZM1.499 12c0-5.8 4.701-10.5 10.5-10.5s10.5 4.7 10.5 10.5c0 5.799-4.701 10.5-10.5 10.5s-10.5-4.701-10.5-10.5Z" clip-rule="evenodd"></path></svg>